<svg xmlns="http://www.w3.org/2000/svg" x="0px" y="0px" width="56" height="56" viewBox="0 0 56 56">
    <title>AskNature light/dark mode favicon</title>
    <style>
        .favicon-svg {
            fill: #231F20;
        }
        @media (prefers-color-scheme: dark) {
            .favicon-svg {
                fill: #F5F4F0;
            }
        }
    </style>
    <path class="favicon-svg" d="M48.91,34.09v-30h-4.96v8.53c-0.6-0.82-1.25-1.59-1.95-2.33c-4.45-4.66-10.56-7.22-17.22-7.22 c-6.65,0-12.77,2.57-17.22,7.22C3.21,14.86,0.8,21.02,0.8,27.65c0,6.63,2.4,12.79,6.76,17.35c4.45,4.66,10.56,7.22,17.22,7.22 c6.65,0,12.77-2.57,17.22-7.22c1.3-1.36,2.43-2.86,3.37-4.49l3.84,10.75h5.27l-5.04-14.11C49.09,36.16,48.91,35.14,48.91,34.09z M43.77,27.65c0,5.35-1.93,10.33-5.43,14.02c-3.53,3.72-8.34,5.77-13.56,5.77c-5.22,0-10.03-2.05-13.56-5.77 c-3.5-3.69-5.43-8.67-5.43-14.02c0-5.35,1.93-10.33,5.43-14.02c3.53-3.72,8.34-5.77,13.56-5.77c5.22,0,10.03,2.05,13.56,5.77 C41.84,17.32,43.77,22.3,43.77,27.65z"/>
</svg>