<svg xmlns="http://www.w3.org/2000/svg" xml:space="preserve" viewBox="0 0 525 85.3"overflow="visible">
    <title>AskNature logo</title>
    <path d="M477 49.5c1-5.2 3.2-9.6 6.5-12.8 3.7-3.7 8.6-5.7 14.2-5.7 5.7 0 10.7 2.1 14.5 6 3.2 3.3 5.3 7.7 6.1 12.5H477zm40.7 21.6c-4.6 5.3-11 8.2-18.4 8.2-6.9 0-12.7-2.4-16.8-7-3.8-4.3-5.9-10.3-6-16.9H525l-.1-1.9c-.3-7.7-3-14.8-7.7-20-5-5.5-11.8-8.4-19.5-8.4-7.8 0-14.9 3.1-19.9 8.9-4.8 5.5-7.4 12.9-7.4 21 0 8.2 2.7 15.7 7.6 21.1 5.3 5.9 12.6 9 21.3 9 9.3 0 17.2-3.4 22.9-9.9l1.1-1.3-4.3-4.3-1.3 1.5zM448 31.8c-1.7 1.6-3.3 3.5-4.6 5.6v-11h-6.1v57.5h6.1V55.2c0-5.2 2.1-11.2 5.6-15.8 4-5.3 9.2-8.2 14.9-8.2h2.4v-6h-1.9c-6.1 0-11.8 2.2-16.4 6.6M208.6 25.2c-6.2 0-11.9 2.1-16.3 6.1-1.3 1.2-2.5 2.5-3.5 3.9v-8.7h-6.1V84h6.1V52.7c0-5.8 2-11.2 5.8-15.2 3.7-4 8.6-6.2 13.9-6.2 6.1 0 10.8 1.9 14 5.7 3.1 3.6 4.8 8.9 4.8 15.3V84h6.1V52c0-7.9-2.2-14.6-6.4-19.3-4.4-4.9-10.7-7.5-18.4-7.5M414.6 57.8c0 5.8-2 11.2-5.8 15.2-3.7 4-8.6 6.2-13.9 6.2-6.1 0-10.8-1.9-14-5.7-3.1-3.6-4.8-8.9-4.8-15.3V26.5H370v32c0 7.9 2.2 14.6 6.4 19.3 4.3 4.9 10.7 7.4 18.3 7.4 6.2 0 11.9-2.1 16.3-6.1 1.3-1.2 2.5-2.5 3.5-3.9v8.7h6.1V26.5h-6.1v31.3h.1zM107.6 56.6c-3.5-2.5-8-3.9-12.3-5.3C88 48.9 81.7 46.9 81.7 41c0-3.9 2.1-6.2 3.8-7.4 2.2-1.6 5.2-2.5 8.3-2.5 5.2 0 9.6 1.6 13.2 4.9l1.3 1.2 4.1-4.4-1.5-1.2c-3.9-3.3-8.8-6.3-17.2-6.3-4.9 0-9.5 1.5-12.7 4.1-3.6 2.9-5.5 6.9-5.5 11.6 0 10.2 9.4 13.2 17.6 15.9 7.8 2.5 14.5 4.7 14.5 11.6 0 6.8-6.6 10.8-13 10.8-6.5 0-11.1-1.9-16.2-6.8l-1.2-1.2-4.3 4 1.3 1.3c5.7 5.7 12.4 8.5 20.5 8.5 5.2 0 10.1-1.7 13.6-4.8 3.5-3.1 5.5-7.3 5.5-11.8 0-5-2-8.9-6.2-11.9M52.4 55.2c0 6.5-2.4 12.6-6.6 17.1-4.3 4.5-10.2 7-16.5 7-6.4 0-12.2-2.5-16.5-7S6.2 61.7 6.2 55.2s2.3-12.6 6.6-17.1 10.2-7 16.5-7c6.4 0 12.2 2.5 16.5 7 4.3 4.5 6.6 10.6 6.6 17.1m6.3 7.9V26.5h-6.1v10.4c-.7-1-1.5-1.9-2.4-2.8-5.4-5.7-12.9-8.8-21-8.8s-15.6 3.1-21 8.8C2.9 39.7 0 47.2 0 55.3s2.9 15.6 8.2 21.2c5.4 5.7 12.9 8.8 21 8.8s15.6-3.1 21-8.8c1.6-1.7 3-3.5 4.1-5.5L59 84.1h6.4l-6.1-17.2c-.4-1.3-.6-2.6-.6-3.8M296.3 55.2c0 6.5-2.3 12.6-6.6 17.1-4.3 4.5-10.2 7-16.5 7-6.4 0-12.2-2.5-16.5-7s-6.6-10.6-6.6-17.1 2.3-12.6 6.6-17.1c4.3-4.5 10.2-7 16.5-7 6.4 0 12.2 2.5 16.5 7 4.2 4.5 6.6 10.6 6.6 17.1m6.2 7.9V26.5h-6.1v10.4c-.7-1-1.5-1.9-2.4-2.8-5.4-5.7-12.9-8.8-21-8.8s-15.6 3.1-21 8.8c-5.3 5.6-8.2 13.1-8.2 21.2s2.9 15.6 8.2 21.2c5.4 5.7 12.9 8.8 21 8.8s15.6-3.1 21-8.8c1.6-1.7 3-3.5 4.1-5.5l4.7 13.1h6.4l-6.1-17.2c-.4-1.3-.6-2.6-.6-3.8M356.9 32.6v-6.1h-22.2V7.7h-6.1v18.7h-14.3v6.1h14.3V75c0 4.9 4.4 8.9 9.8 8.9h18.5v-6.1h-18.5c-2 0-3.7-1.5-3.7-3.4V32.6h22.2zM125.4 0v83.9h6V60.7l6.2-5.4 25.7 28.6h7.8l-29-32.5 28.7-25h-8.9l-30.5 26.7V0z"/>
</svg>