<svg xmlns="http://www.w3.org/2000/svg" width="462.59" height="174.36" viewBox="0 0 462.59 174.36" overflow="visible">
    <style>.home-hero-text { fill: white }</style>
    <title>It's Time to Ask Nature (site tagline)</title>
    <path class="home-hero-text" d="M106.83,46.38c-2.88-2.02-6.55-3.22-10.11-4.38c-5.97-1.95-11.13-3.63-11.13-8.44c0-3.19,1.69-5.07,3.11-6.09 c1.81-1.3,4.31-2.05,6.85-2.05c4.29,0,7.84,1.32,10.85,4.03l1.09,0.99l3.38-3.64l-1.22-1.01c-3.24-2.68-7.18-5.16-14.1-5.16 c-4.04,0-7.76,1.2-10.45,3.38c-2.94,2.38-4.49,5.68-4.49,9.55c0,8.35,7.69,10.85,14.48,13.06c6.4,2.08,11.92,3.87,11.92,9.53 c0,5.54-5.42,8.85-10.66,8.85c-5.36,0-9.1-1.57-13.32-5.61L82,58.41l-3.57,3.31l1.09,1.09c4.68,4.68,10.18,6.96,16.81,6.96 c4.29,0,8.25-1.41,11.15-3.96c2.9-2.55,4.5-5.99,4.5-9.68C111.99,52,110.3,48.81,106.83,46.38z"/>
    <path class="home-hero-text" d="M1.2 0.5H6.19V68.78H1.2z"/>
    <path class="home-hero-text" d="M280.36,25.93c-3.19-3.49-7.72-5.33-13.1-5.33c-7.01,0-12.68,4.7-15.61,10.12 c-2.87-6.49-8.58-10.12-16.19-10.12c-5.1,0-8.88,2.42-11.14,4.45c-0.93,0.84-1.78,1.76-2.53,2.74v-6.14h-4.98v47.18h4.98V41.55 c0-9.46,7.16-16.05,13.59-16.05c3.94,0,7.23,1.35,9.5,3.9c2.44,2.74,3.73,6.88,3.73,11.97v27.47h4.98V41.55 c0-9.46,7.16-16.05,13.59-16.05c3.94,0,7.23,1.35,9.5,3.9c2.44,2.74,3.73,6.88,3.73,11.97v27.47h4.98V41.19 C285.38,34.81,283.65,29.53,280.36,25.93z"/>
    <path class="home-hero-text" d="M453.96,27.93c-4.49-4.69-10.76-7.28-17.65-7.28c-6.92,0-13.2,2.62-17.69,7.37 c-4.3,4.54-6.66,10.64-6.66,17.16v0.18c0,6.5,2.38,12.57,6.7,17.08c4.49,4.69,10.76,7.28,17.65,7.28c6.92,0,13.2-2.62,17.69-7.37 c4.3-4.54,6.66-10.64,6.66-17.16v-0.18C460.67,38.51,458.29,32.44,453.96,27.93z M436.4,64.94c-5.44,0-10.42-2.06-14.03-5.81 c-3.52-3.66-5.46-8.58-5.46-13.86V45.1c0-5.3,1.9-10.23,5.35-13.87c3.55-3.74,8.51-5.8,13.96-5.8c5.44,0,10.42,2.06,14.03,5.81 c3.52,3.66,5.46,8.58,5.46,13.86v0.18c0,5.3-1.9,10.23-5.35,13.87C446.81,62.88,441.85,64.94,436.4,64.94z"/>
    <path class="home-hero-text" d="M197.15,8.35c0-2.25,1.77-4.08,3.95-4.08s3.95,1.83,3.95,4.08c0,2.25-1.77,4.08-3.95,4.08 S197.15,10.6,197.15,8.35z M198.32,68.78V21.64h5v47.14H198.32z"/>
    <path class="home-hero-text" d="M405.16,26.63v-5h-18.2V6.26h-5v15.38H370.2v5h11.77v34.84c0,4.03,3.6,7.31,8.02,7.31h15.17v-5.01h-15.17 c-1.67,0-3.02-1.24-3.02-2.77V26.63H405.16z"/>
    <path class="home-hero-text" d="M184.37,26.63v-5h-18.2V6.26h-5v15.38h-11.77v5h11.77v34.84c0,4.03,3.6,7.31,8.02,7.31h15.17v-5.01H169.2 c-1.67,0-3.02-1.24-3.02-2.77V26.63H184.37z"/>
    <path class="home-hero-text" d="M53.73,26.63v-5h-18.2V6.26h-5v15.38H18.77v5h11.77v34.84c0,4.03,3.6,7.31,8.02,7.31h15.17v-5.01H38.56 c-1.67,0-3.02-1.24-3.02-2.77V26.63H53.73z"/>
    <path class="home-hero-text" d="M79.3,0l-7.97,18.92h-3.98L73.32,0H79.3z"/>
    <path class="home-hero-text" d="M334.43,58.25L334.43,58.25c-3.77,4.39-9.01,6.71-15.13,6.71c-5.64,0-10.4-1.99-13.76-5.75 c-3.12-3.5-4.87-8.41-4.93-13.85h39.8l-0.05-1.54c-0.21-6.33-2.47-12.15-6.35-16.37c-4.13-4.49-9.67-6.86-16.02-6.86 c-6.43,0-12.22,2.58-16.31,7.26c-3.91,4.48-6.06,10.59-6.06,17.22c0,6.73,2.2,12.88,6.2,17.33c4.32,4.81,10.36,7.35,17.47,7.35 c7.61,0,14.1-2.81,18.79-8.14l0.92-1.05l-3.53-3.53L334.43,58.25z M301.06,40.56c0.8-4.24,2.62-7.86,5.3-10.53l0,0 c3.06-3.05,7.08-4.66,11.63-4.66c4.66,0,8.78,1.7,11.91,4.91c2.61,2.68,4.36,6.3,4.99,10.28H301.06z"/>
    <path class="home-hero-text" d="M443.5,162.82L443.5,162.82c-3.77,4.39-9.01,6.71-15.13,6.71c-5.64,0-10.4-1.99-13.76-5.75 c-3.12-3.5-4.87-8.41-4.93-13.85h39.8l-0.05-1.54c-0.21-6.33-2.47-12.15-6.35-16.37c-4.13-4.49-9.67-6.86-16.02-6.86 c-6.43,0-12.22,2.58-16.31,7.26c-3.91,4.48-6.06,10.59-6.06,17.22c0,6.73,2.2,12.88,6.2,17.33c4.32,4.81,10.36,7.35,17.47,7.35 c7.61,0,14.1-2.81,18.79-8.14l0.92-1.05l-3.53-3.53L443.5,162.82z M410.13,145.14c0.8-4.24,2.62-7.86,5.3-10.53l0,0 c3.06-3.05,7.08-4.66,11.63-4.66c4.66,0,8.78,1.7,11.91,4.91c2.61,2.68,4.36,6.3,4.99,10.28H410.13z"/>
    <path class="home-hero-text" d="M386.36,130.58c-1.42,1.34-2.69,2.89-3.77,4.59v-9h-5v47.17h5v-23.56c0-4.23,1.75-9.19,4.58-12.96 c3.24-4.33,7.57-6.71,12.19-6.71h2v-4.9l-1.53-0.01C394.81,125.15,390.14,127.01,386.36,130.58z"/>
    <path class="home-hero-text" d="M189.98,125.2c-5.1,0-9.73,1.72-13.41,4.98c-1.08,0.96-2.06,2.03-2.91,3.18v-7.16h-4.99v47.14h4.99v-25.68 c0-4.77,1.68-9.2,4.73-12.5c3.02-3.26,7.07-5.06,11.4-5.06c4.97,0,8.84,1.57,11.51,4.67c2.56,2.97,3.91,7.3,3.91,12.53v26.04 h4.99v-26.22c0-6.51-1.81-11.98-5.23-15.82C201.43,127.31,196.24,125.2,189.98,125.2z"/>
    <path class="home-hero-text" d="M358.96,151.9c0,4.77-1.68,9.2-4.73,12.5c-3.02,3.26-7.07,5.06-11.4,5.06c-4.97,0-8.84-1.57-11.51-4.67 c-2.56-2.97-3.91-7.3-3.91-12.53v-26.04h-4.99v26.22c0,6.51,1.81,11.98,5.23,15.82c3.56,3.99,8.74,6.1,15,6.1 c5.1,0,9.73-1.72,13.41-4.98c1.08-0.96,2.06-2.03,2.91-3.18v7.16h4.99v-47.14h-4.99V151.9z"/>
    <path class="home-hero-text" d="M88.21,150.95c-2.88-2.02-6.55-3.22-10.11-4.38c-5.97-1.95-11.13-3.63-11.13-8.44 c0-3.19,1.69-5.07,3.11-6.09c1.81-1.3,4.31-2.05,6.85-2.05c4.29,0,7.84,1.32,10.85,4.03l1.09,0.99l3.38-3.64l-1.22-1.01 c-3.24-2.68-7.18-5.16-14.1-5.16c-4.04,0-7.76,1.2-10.45,3.38c-2.94,2.38-4.49,5.68-4.49,9.55c0,8.35,7.69,10.85,14.48,13.06 c6.4,2.08,11.92,3.87,11.92,9.53c0,5.54-5.42,8.85-10.66,8.85c-5.36,0-9.1-1.57-13.32-5.61l-1.02-0.97l-3.57,3.31l1.09,1.09 c4.68,4.68,10.18,6.96,16.81,6.96c4.29,0,8.25-1.41,11.15-3.96c2.9-2.55,4.5-5.99,4.5-9.68 C93.36,156.58,91.68,153.38,88.21,150.95z"/>
    <path class="home-hero-text" d="M48.11,156.22v-30h-4.96v8.53c-0.6-0.82-1.25-1.59-1.95-2.33c-4.45-4.66-10.56-7.22-17.22-7.22 c-6.65,0-12.77,2.57-17.22,7.22C2.4,136.99,0,143.15,0,149.78c0,6.63,2.4,12.79,6.76,17.35c4.45,4.66,10.56,7.22,17.22,7.22 c6.65,0,12.77-2.57,17.22-7.22c1.3-1.36,2.43-2.86,3.37-4.49l3.84,10.75h5.27l-5.04-14.11 C48.29,158.29,48.11,157.27,48.11,156.22z M42.96,149.78c0,5.35-1.93,10.33-5.43,14.02c-3.53,3.72-8.34,5.77-13.56,5.77 c-5.22,0-10.03-2.05-13.56-5.77c-3.5-3.69-5.43-8.67-5.43-14.02c0-5.35,1.93-10.33,5.43-14.02c3.53-3.72,8.34-5.77,13.56-5.77 c5.22,0,10.03,2.05,13.56,5.77C41.04,139.45,42.96,144.43,42.96,149.78z"/>
    <path class="home-hero-text" d="M267.01,156.22v-30h-4.96v8.53c-0.6-0.82-1.25-1.59-1.95-2.33c-4.45-4.66-10.56-7.22-17.22-7.22 s-12.77,2.57-17.22,7.22c-4.36,4.57-6.76,10.73-6.76,17.35c0,6.63,2.4,12.79,6.76,17.35c4.45,4.66,10.56,7.22,17.22,7.22 c6.65,0,12.77-2.57,17.22-7.22c1.3-1.36,2.43-2.87,3.38-4.5l3.88,10.73h5.22l-5.03-14.08 C267.18,158.29,267.01,157.27,267.01,156.22z M261.86,149.78c0,5.35-1.93,10.33-5.43,14.02c-3.53,3.72-8.34,5.77-13.56,5.77 c-5.22,0-10.03-2.05-13.56-5.77c-3.5-3.69-5.43-8.67-5.43-14.02c0-5.35,1.93-10.33,5.43-14.02c3.53-3.72,8.34-5.77,13.56-5.77 c5.22,0,10.03,2.05,13.56,5.77C259.93,139.45,261.86,144.43,261.86,149.78z"/>
    <path class="home-hero-text" d="M311.63,131.2v-5h-18.2v-15.38h-5v15.38h-11.77v5h11.77v34.84c0,4.03,3.6,7.31,8.02,7.31h15.17v-5.01h-15.17 c-1.67,0-3.02-1.24-3.02-2.77V131.2H311.63z"/>
    <path class="home-hero-text" d="M116.55 146.7L140.07 126.19 132.74 126.19 107.79 148.04 107.79 104.53 102.8 104.53 102.8 173.35 107.79 173.35 107.79 154.29 112.85 149.9 133.9 173.35 140.36 173.35z"/>
    <path class="home-hero-text" d="M454.68,169.89c0-2.25,1.77-4.08,3.95-4.08c2.18,0,3.95,1.83,3.95,4.08c0,2.25-1.77,4.08-3.95,4.08 C456.45,173.97,454.68,172.14,454.68,169.89z"/>
</svg>