<svg xmlns="http://www.w3.org/2000/svg" viewBox="0 0 140.5 40.1" version="1.1" role="img" focusable="false">
    <title>built by Civilization</title>
    <path d="M140.2 39.6l-8.4-5.3-7.7 4.8-7.7-4.8-7.6 4.7-7.7-4.8-7.7 4.8-7.7-4.8-7.9 5-7.7-4.8-7.5 4.6-7.8-4.9-7.6 4.9-7.7-4.8-7.7 4.9-7.7-4.8-7.8 4.9-7.7-4.8-8.4 5.3v-34L8.6.4l7.7 4.8L24.1.3l7.7 4.8L39.5.2 47.2 5 54.9.2l7.8 4.9L70.2.5l7.7 4.8 7.9-5 7.7 4.8 7.7-4.8 7.7 4.8 7.6-4.7 7.7 4.8 7.7-4.8 8.4 5.3v33.9zm-69.9-6.9l7.7 4.8 7.9-5 7.7 4.8 7.7-4.8 7.7 4.8 7.6-4.7 7.7 4.8 7.7-4.8 7 4.4V6.5l-7-4.4-7.9 4.9-7.7-4.8-7.6 4.7-7.7-4.8-7.7 4.8-7.7-4.8-7.9 5-7.7-4.8L62.7 7l-7.8-4.9-7.7 4.8-7.7-4.8L31.8 7l-7.7-4.8L16.4 7 8.7 2.2l-7 4.3v30.4l6.9-4.3 7.7 4.8 7.8-4.9 7.7 4.8 7.7-4.9 7.7 4.8 7.7-4.8 7.8 4.9 7.6-4.6z"/>
    <path d="M140.5 40.1l-8.7-5.4-7.7 4.8-7.7-4.8-7.6 4.7-7.7-4.8-7.7 4.8-7.7-4.8-7.9 5-7.7-4.8-7.5 4.6-.1-.1-7.7-4.8-7.7 4.8-7.7-4.8-7.8 4.9-7.7-4.8-7.8 4.9-7.7-4.8L0 40.1V5.6L8.7.2 16.4 5 24.2.1l7.7 4.8L39.6 0l7.7 4.8L54.9 0l7.8 4.9L70.2.3l.1.1 7.5 4.7 7.9-5 7.7 4.8 7.7-4.8 7.7 4.8 7.6-4.7 7.7 4.8 7.7-4.8 8.7 5.4v34.5zM.5 5.8v33.3L8.7 34l7.7 4.8 7.8-4.9 7.7 4.8 7.7-4.9 7.7 4.8 7.7-4.8 7.8 4.9 7.5-4.6 7.7 4.8 7.9-5 7.7 4.8 7.7-4.8 7.7 4.8 7.6-4.7 7.7 4.8L132 34l8.2 5.1V5.8L132 .7l-7.7 4.8-7.7-4.8-7.6 4.7-7.7-4.8-7.7 4.8L85.9.6l-7.9 5-.1-.1L70.4.8l-7.5 4.6L55.1.5l-7.7 4.8-.1-.1L39.8.5 32 5.4 24.3.6l-7.8 4.9L8.7.7.5 5.8zm77.4 32L70.3 33l-7.5 4.6-7.8-4.9-7.7 4.8-7.7-4.8-7.7 4.9-7.7-4.8-7.8 4.9-7.7-4.8-7.2 4.5v-31l7.2-4.5 7.7 4.8 7.8-4.9 7.7 4.8 7.7-4.9 7.7 4.8L55 1.7l7.8 4.9L70.3 2 78 6.8l7.9-5 7.7 4.8 7.7-4.8 7.7 4.8 7.6-4.7 7.7 4.8 7.7-4.8 7.2 4.5v31l-7.2-4.5-7.7 4.8-.1-.1-7.5-4.7-7.6 4.7-7.7-4.8-7.7 4.8-7.7-4.8-8.1 5zm-7.6-5.4l7.7 4.8 7.9-5 7.7 4.8 7.7-4.8L109 37l7.6-4.7 7.7 4.8 7.7-4.8 6.7 4.2V6.7L132 2.5l-7.7 4.8-7.7-4.8-7.6 4.7-7.7-4.8-7.7 4.8-7.7-4.8-7.9 5-7.7-4.8-7.5 4.6L55 2.3l-7.7 4.8-7.7-4.8-7.8 4.9-7.7-4.8-7.8 4.9-7.6-4.8L2 6.7v29.8l6.7-4.2 7.7 4.8 7.8-4.9 7.7 4.8 7.7-4.9 7.7 4.8 7.7-4.8 7.8 4.9 7.5-4.6z"/>
    <path class="c" d="M22.6 22.9v1.9c-.7.4-1.4.6-2.2.8-.6.3-1.4.4-2.1.4-.7 0-1.3-.1-2-.3-.6-.2-1.2-.4-1.8-.8-.9-.6-1.6-1.3-2.1-2.2-.5-.9-.7-1.9-.7-3 0-.8.2-1.6.5-2.3.3-.8.8-1.4 1.4-2 .6-.6 1.4-1.1 2.2-1.4.8-.3 1.7-.5 2.6-.5.7 0 1.3.1 2 .2.7.2 1.4.4 2.1.7v1.9c-.8-.4-1.5-.7-2.1-.9-.7-.2-1.3-.3-2-.3-1.4 0-2.6.4-3.5 1.3-.9.9-1.4 2-1.4 3.3 0 1.3.5 2.4 1.4 3.3.9.9 2 1.3 3.4 1.3.7 0 1.4-.1 2.1-.3.8-.2 1.5-.6 2.2-1.1z"/>
    <path class="c" d="M18.3 26.1c-.7 0-1.4-.1-2-.3-.6-.2-1.2-.5-1.8-.8-.9-.6-1.6-1.4-2.1-2.3-.5-.9-.8-1.9-.8-3 0-.8.2-1.6.5-2.4.3-.8.8-1.5 1.4-2 .6-.6 1.4-1.1 2.2-1.4.8-.3 1.7-.5 2.7-.5.7 0 1.4.1 2 .2.7.2 1.4.4 2.1.7h.1v2.1l-.1-.1c-.8-.4-1.5-.7-2.1-.9-.7-.2-1.3-.3-1.9-.3-1.4 0-2.5.4-3.4 1.3-.9.9-1.3 1.9-1.3 3.2 0 1.3.4 2.3 1.3 3.2.9.9 2 1.3 3.3 1.3.7 0 1.4-.1 2.1-.3.7-.2 1.4-.6 2.2-1.1l.2-.1v2.2h-.1c-.7.4-1.4.7-2.2.8-.8.4-1.6.5-2.3.5zm.1-12.4c-1 0-1.8.1-2.6.4-.8.3-1.5.7-2.1 1.3-.6.5-1 1.2-1.4 2-.3.7-.5 1.5-.5 2.3 0 1 .2 2 .7 2.9.5.9 1.2 1.6 2 2.2.5.3 1.1.6 1.7.8 1.2.4 2.7.4 4.1 0 .7-.2 1.4-.5 2.1-.8v-1.7c-.7.4-1.4.8-2.1 1-.7.2-1.4.4-2.2.4-1.4 0-2.5-.5-3.5-1.3-.9-.9-1.4-2-1.4-3.3 0-1.3.5-2.5 1.4-3.4.9-.9 2.1-1.3 3.6-1.3.6 0 1.3.1 2 .3.6.2 1.3.5 2 .8v-1.6c-.7-.3-1.4-.6-2-.7-.4-.2-1.1-.3-1.8-.3zm7 12.1v-12h1.7v12h-1.7z"/>
    <path class="c" d="M27.2 25.9h-1.9V13.7h1.9v12.2zm-1.7-.2H27V13.9h-1.5v11.8zm8.8.2L29 13.8h1.8l3.7 8.6 3.8-8.6h1.8l-5.4 12.1h-.4z"/>
    <path class="c" d="M34.9 26h-.6v-.1l-5.4-12.2h2v.1l3.7 8.4 3.8-8.4h2L34.9 26zm-.5-.2h.3L40 13.9h-1.6l-3.9 8.7-3.8-8.7h-1.6l5.3 11.9zm7.6 0v-12h1.7v12H42z"/>
    <path class="c" d="M43.8 25.9h-1.9V13.7h1.9v12.2zm-1.7-.2h1.5V13.9h-1.5v11.8zm5 .1v-12h1.7v10.5h5.7v1.5h-7.4z"/>
    <path class="c" d="M54.6 25.9H47V13.7h1.9v10.5h5.7v1.7zm-7.4-.2h7.2v-1.3h-5.7V13.9h-1.5v11.8zm9.6.1v-12h1.7v12h-1.7z"/>
    <path class="c" d="M58.6 25.9h-1.9V13.7h1.9v12.2zm-1.7-.2h1.5V13.9h-1.5v11.8zm3.7.1l7.9-10.5h-7.3v-1.5h10.3v.2l-7.8 10.3h7.8v1.5H60.6z"/>
    <path class="c" d="M71.6 25.9H60.4l.1-.2 7.8-10.4h-7.2v-1.7h10.5v.4L64 24.2h7.7v1.7zm-10.8-.2h10.6v-1.3h-7.9l7.9-10.5v-.1H61.3v1.3h7.4l-.1.2-7.8 10.4zm12.2.1l5.2-12h1.3l5.3 12H83l-1.5-3.5h-5.1l-1.5 3.5H73zm4-5.1h3.7l-1.9-4.3-1.8 4.3z"/>
    <path class="c" d="M84.9 25.9h-2l-1.5-3.5h-5l-1.5 3.5h-2l5.3-12.2h1.4l5.3 12.2zm-1.9-.2h1.6l-5.2-11.8h-1.1l-5.1 11.8h1.5l1.5-3.5h5.3l1.5 3.5zm-2.1-4.9h-4.1l2-4.7 2.1 4.7zm-3.8-.2h3.4l-1.7-4-1.7 4zm11.8 5.2V15.3h-4.4v-1.6H95v1.6h-4.4v10.5h-1.7z"/>
    <path class="c" d="M90.8 25.9h-1.9V15.4h-4.4v-1.8h10.7v1.8h-4.4v10.5zm-1.8-.2h1.5V15.2H95v-1.4H84.6v1.4H89v10.5zm8.3.1v-12H99v12h-1.7z"/>
    <path class="c" d="M99.1 25.9h-1.9V13.7h1.9v12.2zm-1.7-.2h1.5V13.9h-1.5v11.8zm4.2-6c0-.8.2-1.6.5-2.3.3-.8.8-1.4 1.4-2 .6-.6 1.3-1 2.1-1.4.8-.3 1.6-.5 2.4-.5.9 0 1.7.2 2.5.5s1.5.8 2.1 1.3c.6.6 1.1 1.3 1.4 2 .3.7.5 1.6.5 2.4 0 .8-.2 1.6-.5 2.4-.3.8-.8 1.4-1.4 2-.6.6-1.3 1.1-2.1 1.4-.8.3-1.6.5-2.5.5-.9 0-1.7-.2-2.5-.5s-1.5-.8-2.1-1.3c-.6-.6-1.1-1.3-1.4-2-.3-.8-.4-1.6-.4-2.5zm1.8.1c0 .6.1 1.2.3 1.8.2.6.6 1.1 1 1.5.4.4.9.8 1.5 1 .6.2 1.1.3 1.8.3.6 0 1.2-.1 1.8-.3.6-.2 1-.6 1.5-1 .4-.4.8-.9 1-1.5.2-.6.3-1.1.3-1.8 0-.6-.1-1.2-.3-1.7-.2-.5-.6-1-1-1.5-.4-.4-.9-.8-1.5-1-.6-.2-1.1-.3-1.8-.3-.6 0-1.2.1-1.7.3-.6.2-1.1.6-1.5 1-.4.4-.8.9-1 1.5-.3.5-.4 1.1-.4 1.7z"/>
    <path class="c" d="M108 26.1c-.9 0-1.7-.2-2.5-.5s-1.5-.8-2.1-1.4c-.6-.6-1.1-1.3-1.4-2.1-.3-.8-.5-1.6-.5-2.5 0-.8.2-1.6.5-2.4.3-.8.8-1.5 1.4-2 .6-.6 1.3-1.1 2.1-1.4.8-.3 1.6-.5 2.5-.5.9 0 1.7.2 2.5.5s1.5.8 2.1 1.4c.6.6 1.1 1.3 1.4 2.1.3.7.5 1.6.5 2.5 0 .8-.2 1.6-.5 2.4-.3.8-.8 1.4-1.4 2-.6.6-1.3 1.1-2.1 1.4-.8.3-1.7.5-2.5.5zm0-12.4c-.8 0-1.7.2-2.4.5-.8.3-1.4.8-2 1.3-.6.6-1 1.2-1.4 2-.3.7-.5 1.5-.5 2.3 0 .8.2 1.6.5 2.4.3.7.8 1.4 1.4 2 .6.6 1.3 1 2 1.3.8.3 1.6.5 2.4.5.9 0 1.7-.2 2.4-.5.8-.3 1.4-.7 2.1-1.3.6-.6 1-1.2 1.4-2 .3-.7.5-1.5.5-2.3 0-.9-.2-1.7-.5-2.4s-.8-1.4-1.4-2c-.6-.6-1.3-1-2-1.3-.9-.4-1.7-.5-2.5-.5zm0 10.8c-.6 0-1.2-.1-1.8-.4-.6-.2-1.1-.6-1.5-1-.4-.4-.8-.9-1-1.5-.2-.6-.3-1.2-.3-1.8 0-.6.1-1.2.3-1.8.2-.6.6-1.1 1-1.5.5-.4 1-.8 1.5-1 1.1-.5 2.4-.5 3.6 0 .6.2 1.1.6 1.5 1 .5.5.8 1 1 1.5.2.6.4 1.2.4 1.8 0 .6-.1 1.2-.4 1.8-.2.6-.6 1.1-1 1.5-.4.4-.9.8-1.5 1-.6.2-1.2.4-1.8.4zm0-9.2c-.6 0-1.2.1-1.7.3-.5.2-1 .6-1.5 1-.4.4-.7.9-1 1.4-.2.6-.3 1.1-.3 1.7 0 .6.1 1.2.3 1.7.2.5.6 1 1 1.4.4.4.9.7 1.4 1 .5.2 1.1.3 1.7.3.6 0 1.2-.1 1.7-.3.5-.2 1-.6 1.4-1 .4-.4.7-.9 1-1.4.2-.5.3-1.1.3-1.7 0-.6-.1-1.2-.3-1.7-.2-.5-.6-1-1-1.5-.4-.4-.9-.8-1.4-1-.5-.1-1-.2-1.6-.2zm8.6 10.5v-12h1.5l7.9 9.3v-9.3h1.7v12h-1.5l-7.9-9.3v9.3h-1.7z"/>
    <path class="c" d="M127.8 25.9h-1.7l-7.7-9.1V26h-1.9V13.7h1.6l7.8 9.2v-9.2h1.9v12.2zm-1.6-.2h1.4V13.9h-1.5v9.5l-.2-.2-7.9-9.3h-1.3v11.8h1.5v-9.5l.2.2 7.8 9.3z"/>
</svg>