<svg xmlns="http://www.w3.org/2000/svg" width="97.3" height="15.12" viewBox="0 0 97.3 15.12" overflow="visible">
    <title>AskNature logo</title>
    <path d="M96,12.62L96,12.62c-0.82,0.95-1.95,1.45-3.28,1.45c-1.22,0-2.25-0.43-2.98-1.24c-0.68-0.76-1.05-1.82-1.07-3 h8.62l-0.01-0.33c-0.05-1.37-0.53-2.63-1.38-3.54c-0.89-0.97-2.09-1.48-3.47-1.48c-1.39,0-2.64,0.56-3.53,1.57 c-0.85,0.97-1.31,2.29-1.31,3.73c0,1.46,0.48,2.79,1.34,3.75c0.93,1.04,2.24,1.59,3.78,1.59c1.65,0,3.05-0.61,4.07-1.76l0.2-0.23 l-0.76-0.76L96,12.62z M88.78,8.79c0.17-0.92,0.57-1.7,1.15-2.28l0,0c0.66-0.66,1.53-1.01,2.52-1.01c1.01,0,1.9,0.37,2.58,1.06 c0.56,0.58,0.94,1.36,1.08,2.23H88.78z"/>
    <path d="M83.63,5.64c-0.31,0.29-0.58,0.63-0.82,0.99V4.69h-1.08V14.9h1.08V9.8c0-0.91,0.38-1.99,0.99-2.81 c0.7-0.94,1.64-1.45,2.64-1.45h0.43V4.48l-0.33,0C85.46,4.46,84.45,4.87,83.63,5.64z"/>
    <path d="M41.12,4.48c-1.1,0-2.11,0.37-2.9,1.08c-0.23,0.21-0.44,0.44-0.63,0.69V4.69h-1.08v10.2h1.08V9.34 c0-1.03,0.36-1.99,1.02-2.71c0.65-0.71,1.53-1.09,2.47-1.09c1.08,0,1.91,0.34,2.49,1.01c0.55,0.64,0.85,1.58,0.85,2.71v5.64h1.08 V9.22c0-1.41-0.39-2.59-1.13-3.42C43.6,4.93,42.48,4.48,41.12,4.48z"/>
    <path d="M77.7,10.25c0,1.03-0.36,1.99-1.02,2.71c-0.65,0.71-1.53,1.09-2.47,1.09c-1.08,0-1.91-0.34-2.49-1.01 c-0.55-0.64-0.85-1.58-0.85-2.71V4.7h-1.08v5.68c0,1.41,0.39,2.59,1.13,3.42c0.77,0.86,1.89,1.32,3.25,1.32 c1.1,0,2.11-0.37,2.9-1.08c0.23-0.21,0.44-0.44,0.63-0.69v1.55h1.08V4.7H77.7V10.25z"/>
    <path d="M19.09,10.05c-0.62-0.44-1.42-0.7-2.19-0.95c-1.29-0.42-2.41-0.79-2.41-1.83c0-0.69,0.37-1.1,0.67-1.32 c0.39-0.28,0.93-0.44,1.48-0.44c0.93,0,1.7,0.29,2.35,0.87l0.24,0.21l0.73-0.79L19.7,5.59c-0.7-0.58-1.55-1.12-3.05-1.12 c-0.88,0-1.68,0.26-2.26,0.73c-0.64,0.51-0.97,1.23-0.97,2.07c0,1.81,1.67,2.35,3.13,2.83c1.38,0.45,2.58,0.84,2.58,2.06 c0,1.2-1.17,1.92-2.31,1.92c-1.16,0-1.97-0.34-2.88-1.21l-0.22-0.21l-0.77,0.72l0.24,0.24c1.01,1.01,2.2,1.51,3.64,1.51 c0.93,0,1.79-0.3,2.41-0.86c0.63-0.55,0.97-1.3,0.97-2.09C20.21,11.27,19.84,10.58,19.09,10.05z"/>
    <path d="M10.41,11.19V4.7H9.34v1.85C9.21,6.36,9.07,6.2,8.92,6.04C7.95,5.03,6.63,4.47,5.19,4.47 c-1.44,0-2.76,0.56-3.73,1.56C0.52,7.03,0,8.36,0,9.79c0,1.43,0.52,2.77,1.46,3.76c0.96,1.01,2.29,1.56,3.73,1.56 c1.44,0,2.76-0.56,3.73-1.56c0.28-0.29,0.53-0.62,0.73-0.97l0.83,2.33h1.14l-1.09-3.05C10.45,11.64,10.41,11.42,10.41,11.19z M9.3,9.79c0,1.16-0.42,2.24-1.17,3.03c-0.76,0.81-1.81,1.25-2.94,1.25c-1.13,0-2.17-0.44-2.94-1.25 c-0.76-0.8-1.17-1.88-1.17-3.03c0-1.16,0.42-2.24,1.17-3.03c0.76-0.81,1.81-1.25,2.94-1.25c1.13,0,2.17,0.44,2.94,1.25 C8.88,7.56,9.3,8.64,9.3,9.79z"/>
    <path d="M57.8,11.19V4.7h-1.07v1.85c-0.13-0.18-0.27-0.34-0.42-0.5c-0.96-1.01-2.29-1.56-3.73-1.56 s-2.76,0.56-3.73,1.56c-0.94,0.99-1.46,2.32-1.46,3.76c0,1.43,0.52,2.77,1.46,3.76c0.96,1.01,2.29,1.56,3.73,1.56 c1.44,0,2.76-0.56,3.73-1.56c0.28-0.29,0.53-0.62,0.73-0.97l0.84,2.32H59l-1.09-3.05C57.84,11.64,57.8,11.42,57.8,11.19z M56.68,9.79c0,1.16-0.42,2.24-1.17,3.03c-0.76,0.81-1.81,1.25-2.94,1.25c-1.13,0-2.17-0.44-2.94-1.25 c-0.76-0.8-1.17-1.88-1.17-3.03c0-1.16,0.42-2.24,1.17-3.03c0.76-0.81,1.81-1.25,2.94-1.25c1.13,0,2.17,0.44,2.94,1.25 C56.27,7.56,56.68,8.64,56.68,9.79z"/>
    <path d="M67.46,5.77V4.69h-3.94V1.36h-1.08v3.33h-2.55v1.08h2.55v7.54c0,0.87,0.78,1.58,1.74,1.58h3.28v-1.08h-3.28 c-0.36,0-0.65-0.27-0.65-0.6V5.77H67.46z"/>
    <path d="M25.23 9.13L30.32 4.69 28.73 4.69 23.33 9.42 23.33 0 22.25 0 22.25 14.9 23.33 14.9 23.33 10.77 24.43 9.82 28.98 14.9 30.38 14.9z"/>
</svg>