<svg xmlns="http://www.w3.org/2000/svg" width="182.33" height="53.24" viewBox="0 0 182.33 53.24" overflow="visible">
    <title>Biomimicry Institute logo</title>
    <path d="M116.09,26.79c0,1.91-0.05,3.82,0.02,5.73C116.04,30.61,116.09,28.7,116.09,26.79c0-2.02-0.04-4.04,0.02-6.06	C116.05,22.75,116.09,24.77,116.09,26.79z"/>
    <path d="M138.72,26.7c0-1.94,0.05-3.89-0.02-5.83C138.77,22.82,138.72,24.76,138.72,26.7c0,1.91,0.04,3.81-0.02,5.72	C138.77,30.51,138.72,28.61,138.72,26.7z"/>
    <path d="M110.46,33.5c1.15-0.38,0.03-1.05,0.07-1.59c0.01-0.07-0.03-0.14-0.05-0.21c-1.28-3.89-2.55-7.78-3.84-11.65	c-0.08-0.24-0.42-0.61-0.54-0.57c-0.26,0.08-0.55,0.33-0.66,0.59c-0.38,0.87-0.68,1.77-1.03,2.65c-0.67,1.69-1.35,3.37-2.14,5.32	c-0.3-0.51-0.51-0.78-0.63-1.08c-0.91-2.27-1.79-4.55-2.71-6.82c-0.11-0.28-0.38-0.49-0.57-0.73c-0.2,0.26-0.5,0.5-0.6,0.8	c-1.22,3.56-2.43,7.13-3.62,10.71c-0.27,0.8-0.47,1.63-0.71,2.45c2.23,0.45,2.39,0.36,2.97-1.48c0.34-1.08,0.68-2.15,1.05-3.22	c0.31-0.9,0.65-1.79,1.05-2.89c0.25,0.38,0.37,0.52,0.43,0.68c0.88,2.2,1.75,4.41,2.64,6.61c0.12,0.31,0.37,0.56,0.56,0.84	c0.23-0.26,0.55-0.48,0.67-0.78c0.87-2.2,1.7-4.43,2.55-6.63c0.08-0.2,0.29-0.35,0.44-0.53c0.15,0.19,0.37,0.35,0.44,0.56	c0.64,1.94,1.27,3.89,1.88,5.84C108.46,33.46,109.22,33.92,110.46,33.5z"/>
    <path d="M135.32,33.54c0.63-0.06,0.86-0.3,0.64-0.93c-0.34-0.97-0.66-1.94-0.98-2.91c-1.07-3.23-2.14-6.46-3.23-9.69	c-0.08-0.24-0.34-0.42-0.51-0.62c-0.19,0.2-0.4,0.39-0.55,0.61c-0.15,0.21-0.26,0.45-0.35,0.68c-0.83,2.15-1.65,4.3-2.48,6.45	c-0.1,0.25-0.3,0.46-0.59,0.9c-1.09-2.78-2.07-5.29-3.09-7.8c-0.12-0.3-0.43-0.52-0.65-0.78c-0.23,0.26-0.57,0.48-0.68,0.78	c-1.43,4.19-2.82,8.38-4.21,12.58c-0.06,0.18-0.05,0.47,0.06,0.59c0.44,0.48,2.39,0.04,2.6-0.59c0.66-2.02,1.28-4.04,1.94-6.06	c0.08-0.25,0.27-0.46,0.41-0.69c0.19,0.22,0.45,0.41,0.55,0.66c0.86,2.14,1.67,4.3,2.54,6.43c0.12,0.29,0.46,0.49,0.7,0.74	c0.18-0.26,0.41-0.49,0.52-0.77c0.47-1.15,0.9-2.32,1.36-3.48c0.5-1.26,1.03-2.51,1.65-4.03c0.27,0.7,0.43,1.1,0.56,1.5	c0.52,1.6,1.05,3.2,1.55,4.81C133.58,33.45,133.89,33.67,135.32,33.54z"/>
    <path d="M68.95,26.06c-0.07,0.15-0.05,0.02,0.02-0.04c1.22-0.94,1.42-2.22,0.97-3.56c-0.47-1.41-1.47-2.42-3.02-2.51	c-2.01-0.13-4.03-0.13-6.04-0.1c-0.22,0-0.62,0.57-0.62,0.88c-0.04,3.96-0.02,7.92-0.04,11.88c0,0.64,0.2,0.94,0.88,0.93	c1.76-0.03,3.52,0.06,5.28-0.03c2.62-0.14,4.39-2.07,4.05-4.57C70.29,27.98,69.52,27.12,68.95,26.06z M65.06,22.08	c0.26,0.01,0.51,0.01,0.77,0.04c1.08,0.14,1.81,0.81,1.77,1.6c-0.04,0.83-0.77,1.44-1.86,1.53c-0.36,0.03-0.73,0.01-1.1,0.01	c0,0,0,0.01,0,0.01c-0.33,0-0.66-0.01-0.99,0c-0.61,0.03-0.82-0.25-0.85-0.86C62.71,22.02,62.69,22.02,65.06,22.08z M67.8,29.5	c-0.17,0.55-0.61,1.29-1.08,1.41c-1.07,0.28-2.32,0.56-3.31,0.24c-1.32-0.43-0.35-1.85-0.58-2.81c-0.15-0.6,0.33-0.8,0.9-0.77	c0.36,0.02,0.73,0,1.1,0c0.01-0.04,0.01-0.07,0.02-0.11c0.67,0.12,1.37,0.17,2,0.39C67.58,28.11,68.02,28.75,67.8,29.5z"/>
    <path d="M92.92,26.67c0.02-4.27-3.27-6.92-6.98-7.06c-3.93-0.15-7.33,3.08-7.38,6.89c-0.05,3.9,3.12,7.1,7.1,7.16	C89.19,33.73,92.9,31.18,92.92,26.67z M85.64,31.32c-2.44-0.05-4.48-2.26-4.43-4.81c0.05-2.52,2.1-4.53,4.6-4.5	c2.53,0.04,4.55,2.15,4.51,4.72C90.29,29.22,88.1,31.37,85.64,31.32z"/>
    <path d="M168.38,23.44c-0.19-1.83-1.61-3.29-3.78-3.51c-1.82-0.19-3.66-0.1-5.5-0.12c-0.74-0.01-0.75,0.49-0.75,1.06	c0.02,3.82,0.04,7.64-0.01,11.45c-0.01,1,0.35,1.24,1.28,1.25c0.92,0,1.31-0.21,1.29-1.23c-0.06-3.04-0.04-6.09,0-9.14	c0-0.36,0.3-1.03,0.46-1.03c1.12-0.01,2.31-0.09,3.35,0.25c1.38,0.46,1.49,2.32,0.22,3.05c-0.62,0.36-1.46,0.35-2.2,0.48	c-0.46,0.08-0.93,0.1-1.71,0.18c1.82,2.27,3.41,4.27,5.02,6.26c0.99,1.23,2.16,1.52,3.88,0.89c-1.51-1.8-2.99-3.56-4.54-5.41	C167.7,26.86,168.59,25.47,168.38,23.44z"/>
    <path d="M155.43,31.83c0.01-0.89-1.44-1.64-2.23-1.19c-1.53,0.89-3.06,0.93-4.56-0.03c-2.22-1.42-2.89-4.14-1.57-6.33	c1.36-2.28,3.87-2.91,6.28-1.54c0.59,0.34,1,0.34,1.39-0.23c0.24-0.36,0.52-0.69,0.82-1.09c-2.16-1.98-5.26-2.37-7.77-1.06	c-2.9,1.51-4.31,4.15-3.89,7.33c0.66,5.06,7.05,7.76,11.11,4.69C155.18,32.24,155.43,32.02,155.43,31.83z"/>
    <path d="M178.35,21.47c-0.57,1.12-1.42,2.1-2.27,3.32c-0.85-1.21-1.71-2.19-2.27-3.31c-0.86-1.71-2.19-1.95-3.98-1.6	c0.07,0.25,0.07,0.44,0.16,0.57c1.1,1.6,2.16,3.23,3.34,4.77c1.12,1.46,1.78,2.98,1.5,4.87c-0.11,0.79,0.02,1.62-0.03,2.42	c-0.06,1,0.55,1.02,1.28,1.02c0.72,0,1.32,0,1.27-1c-0.06-1.36-0.07-2.72,0-4.08c0.03-0.59,0.19-1.24,0.5-1.72	c1.34-2.06,2.76-4.06,4.14-6.09c0.14-0.21,0.21-0.48,0.33-0.75C180.55,19.54,179.22,19.79,178.35,21.47z"/>
    <path d="M116.09,26.79c0-2.02-0.04-4.04,0.02-6.06c0.03-1.1-0.69-0.93-1.33-0.93c-0.65-0.01-1.33-0.12-1.32,0.95	c0.04,3.93,0.04,7.86,0,11.79c-0.01,1.14,0.71,0.98,1.4,1c0.71,0.02,1.29,0.01,1.25-1.02C116.04,30.61,116.09,28.7,116.09,26.79z"/>
    <path d="M76.07,20.75c0.01-1.07-0.67-0.95-1.32-0.95c-0.65,0-1.34-0.13-1.31,0.95c0.06,1.94,0.02,3.89,0.02,5.83	c0,0,0,0-0.01,0c0,1.98,0.04,3.96-0.02,5.94c-0.03,1.01,0.54,1.04,1.26,1.02c0.7-0.02,1.4,0.1,1.39-1.02	C76.03,28.6,76.03,24.67,76.07,20.75z"/>
    <path d="M141.22,20.86c0.01-0.94-0.43-1.08-1.21-1.08c-0.79,0-1.33,0.07-1.3,1.1c0.06,1.94,0.02,3.88,0.02,5.83	c0,1.91,0.04,3.81-0.02,5.72c-0.03,0.99,0.42,1.14,1.26,1.14c0.85,0,1.27-0.18,1.26-1.16C141.18,28.55,141.18,24.71,141.22,20.86z"/>
    <path d="M23.18,50.33c0.05-0.06,0.11-0.11,0.16-0.17C23.29,50.21,23.24,50.27,23.18,50.33z"/>
    <path d="M16.32,13.7L16.32,13.7c0.06,0.01,0.13,0.01,0.2,0.01C16.45,13.71,16.38,13.71,16.32,13.7z"/>
    <path d="M23.6,49.91c-0.08,0.09-0.16,0.17-0.25,0.25C23.43,50.08,23.52,50,23.6,49.91c0.07,0.08,0.16,0.16,0.24,0.24	C23.75,50.07,23.67,49.99,23.6,49.91z"/>
    <path d="M35.46,12.46c0-0.08,0-0.16,0-0.24l0,0C35.46,12.29,35.46,12.37,35.46,12.46z"/>
    <path d="M6.17,31.35c0.09,0.09,0.18,0.2,0.26,0.3C6.34,31.55,6.26,31.44,6.17,31.35L6.17,31.35z"/>
    <path d="M40.47,7.85L40.47,7.85c0-0.11-0.01-0.22-0.02-0.34C40.47,7.63,40.48,7.75,40.47,7.85z"/>
    <path d="M9.32,39.81c0.09,0.02,0.17,0.04,0.26,0.06C9.49,39.85,9.4,39.83,9.32,39.81L9.32,39.81z"/>
    <path d="M24.07,21.94c0.04-3.16,0.01-6.33,0.01-9.57c-0.24,0-0.69,0-1.03,0c0,3.28,0.01,6.48-0.01,9.69	c0,0.35-0.13,0.71-0.19,1.06c-0.11,0-0.22,0-0.33-0.01c-0.16-0.37-0.37-0.73-0.48-1.12c-0.3-1.05-0.59-2.11-0.83-3.18	c-0.1-0.43-0.17-0.78-0.72-0.63c-0.66,0.17-0.4,0.58-0.28,0.99c0.35,1.21,0.69,2.43,0.99,3.65c0.05,0.21-0.08,0.46-0.13,0.69	c-0.22-0.14-0.54-0.22-0.66-0.42c-0.73-1.22-1.43-2.45-2.13-3.69c-0.94-1.68-1.85-3.36-2.81-5.1c-0.42,0.24-0.82,0.47-1.1,0.64	c1.68,2.84,3.33,5.6,4.96,8.39c0.17,0.29,0.17,0.68,0.24,1.03c-0.34-0.16-0.75-0.25-1.01-0.5c-0.99-0.96-1.93-1.97-2.95-3.04	c-0.33,0.38-0.52,0.61-0.73,0.85c0.21,0.22,0.34,0.36,0.47,0.49c0.9,0.89,1.81,1.76,2.69,2.67c0.16,0.17,0.17,0.49,0.25,0.73	c-0.27-0.01-0.53-0.01-0.8-0.05c-0.09-0.01-0.16-0.11-0.24-0.16c-2.78-1.63-5.56-3.25-8.39-4.9c-0.19,0.34-0.42,0.74-0.6,1.06	c2.94,1.66,5.81,3.27,8.66,4.9c0.23,0.13,0.35,0.45,0.52,0.69c-0.29,0.04-0.6,0.18-0.86,0.12c-1.22-0.31-2.43-0.7-3.65-0.99	c-0.24-0.06-0.56,0.19-0.84,0.29c0.18,0.24,0.32,0.63,0.55,0.7c1.05,0.33,2.12,0.56,3.18,0.86c0.43,0.12,0.84,0.32,1.26,0.49	c-0.02,0.14-0.05,0.29-0.07,0.43c-3.56,0.11-7.13,0.05-10.69-0.02c0,0.5,0,0.9,0,1.34c0.22,0.01,0.38,0.03,0.54,0.02	c3.11-0.07,6.21-0.15,9.32-0.19c0.28,0,0.57,0.24,0.85,0.38c-0.24,0.17-0.45,0.41-0.72,0.48c-1.21,0.34-2.45,0.6-3.64,0.98	c-0.25,0.08-0.38,0.53-0.57,0.81c0.27,0.09,0.56,0.29,0.79,0.24c1.25-0.31,2.48-0.7,3.74-1.02c0.25-0.06,0.56,0.07,0.84,0.11	c-0.16,0.24-0.26,0.58-0.48,0.7c-2.71,1.51-5.43,2.98-8.15,4.47c-0.21,0.12-0.38,0.3-0.56,0.45c0.25,0.44,0.45,0.79,0.64,1.14	c0.11-0.02,0.18-0.01,0.23-0.04c2.79-1.7,5.56-3.4,8.36-5.08c0.22-0.13,0.56-0.07,0.84-0.1c-0.11,0.27-0.17,0.59-0.35,0.79	c-0.82,0.87-1.64,1.75-2.55,2.53c-0.71,0.61-0.6,0.96,0.23,1.34c1-1,1.98-2.03,3.01-3.01c0.23-0.22,0.62-0.28,0.94-0.41	c-0.07,0.32-0.08,0.68-0.23,0.95c-1.64,2.81-3.3,5.6-4.99,8.46c0.33,0.21,0.72,0.46,1.15,0.73c1.53-3.35,3.41-6.42,5.47-9.43	c0.18,0.35,0.24,0.65,0.17,0.93c-0.28,1.16-0.52,2.35-0.94,3.46c-0.34,0.92,0,1.07,0.82,1.09c0.23-0.87,0.37-1.75,0.69-2.54	c0.31-0.78,0.05-1.85,1.2-2.44c0,3.7,0,7.25,0,10.82c0.44,0,0.87,0,1.33,0c0.02-0.18,0.06-0.31,0.06-0.43	c-0.08-3.17-0.17-6.34-0.23-9.51c0-0.26,0.22-0.53,0.34-0.79c0.18,0.23,0.44,0.43,0.51,0.68c0.37,1.24,0.67,2.49,1.02,3.74	c0.06,0.2,0.22,0.37,0.35,0.6c0.3-0.16,0.54-0.28,0.79-0.41c-0.39-1.43-0.77-2.8-1.11-4.18c-0.07-0.28,0.03-0.61,0.05-0.91	c0.23,0.17,0.55,0.28,0.68,0.5c1.08,1.8,2.13,3.61,3.16,5.44c0.62,1.11,1.19,2.25,1.8,3.42c0.44-0.33,0.79-0.59,1.04-0.78	c-1.71-2.92-3.38-5.75-5.03-8.59c-0.14-0.23-0.11-0.56-0.17-0.84c0.27,0.09,0.61,0.11,0.8,0.29c0.94,0.89,1.85,1.81,2.74,2.75	c0.32,0.35,0.57,0.52,0.95,0.12c0.41-0.42,0.11-0.64-0.2-0.93c-0.94-0.89-1.86-1.8-2.76-2.73c-0.17-0.17-0.19-0.49-0.28-0.73	c0.27,0.02,0.59-0.06,0.79,0.06c2.79,1.69,5.56,3.41,8.34,5.11c0.12,0.07,0.29,0.07,0.43,0.09c0.22-0.41,0.41-0.76,0.65-1.2	c-0.19-0.13-0.31-0.23-0.45-0.3c-2.8-1.53-5.61-3.06-8.41-4.61c-0.21-0.12-0.31-0.42-0.47-0.63c0.28-0.05,0.59-0.21,0.84-0.15	c1.22,0.31,2.43,0.66,3.63,1.03c0.49,0.15,0.89,0.1,0.94-0.44c0.02-0.19-0.38-0.54-0.64-0.61c-1.21-0.36-2.44-0.62-3.65-0.97	c-0.25-0.07-0.44-0.36-0.65-0.55c0.25-0.1,0.5-0.3,0.74-0.3c3.08,0.04,6.15,0.11,9.23,0.17c0.27,0.01,0.55,0,0.9,0	c-0.03-0.53-0.05-0.93-0.06-1.26c-1.31,0-2.5,0-3.7,0c-1.23,0-2.46,0.04-3.69-0.01c-1.14-0.05-2.32,0.25-3.45-0.34	c0.35-0.29,0.7-0.5,1.08-0.6c1.09-0.3,2.2-0.54,3.28-0.87c0.25-0.07,0.41-0.41,0.62-0.62c-0.3-0.13-0.64-0.42-0.9-0.37	c-1.17,0.26-2.32,0.59-3.46,0.94c-0.63,0.19-0.97,0.09-1.29-0.56c-0.89-1.81-2.4-2.98-4.37-3.39C24.21,23.04,24.07,22.7,24.07,21.94	z"/>
    <path d="M8.34,46.8c-0.11,0.31,0.08,0.73,0.13,1.09c0.26-0.23,0.61-0.42,0.75-0.71c1.04-2.15,1.9-4.4,3.65-6.12	c0.21-0.21,0.45-0.39,0.67-0.58c0.09,0.05,0.18,0.1,0.27,0.15c-0.22,0.78-0.47,1.55-0.65,2.33c-0.06,0.25,0.07,0.55,0.12,0.83	c0.24-0.16,0.61-0.28,0.68-0.5c0.34-1.03,0.6-2.08,0.91-3.19c-0.95-0.19-1.71-0.55-1.65-1.8c-1.14,0.32-2.16,0.58-3.16,0.91	c-0.18,0.06-0.33,0.2-0.48,0.34c-0.09,0.09-0.18,0.18-0.27,0.25c0.09,0.02,0.17,0.04,0.26,0.06c0.26,0.06,0.52,0.13,0.77,0.12	c0.38-0.03,0.75-0.2,1.12-0.3c0.34-0.09,0.69-0.17,1.04-0.26c0.05,0.08,0.1,0.16,0.15,0.24c-0.18,0.22-0.35,0.47-0.55,0.67	c-1.65,1.68-3.8,2.53-5.87,3.51c-0.36,0.17-0.87,0.73-0.8,0.92c0.25,0.65,0.72,0.19,1.11,0.02c0.96-0.41,1.93-0.81,3.12-1.3	c-0.12,0.46-0.15,0.67-0.23,0.85C9.06,45.16,8.63,45.96,8.34,46.8z"/>
    <path d="M9.32,39.81L9.32,39.81c0.09-0.08,0.18-0.17,0.27-0.25C9.5,39.65,9.41,39.74,9.32,39.81z"/>
    <path d="M46.16,34.2c0.29-0.06,0.53-0.4,0.8-0.61c-0.29-0.13-0.59-0.38-0.88-0.37c-1.19,0.06-2.38,0.31-3.57,0.29	c-1.45-0.02-2.9-0.25-4.35-0.39c-0.02-0.15-0.04-0.29-0.06-0.44c0.27-0.14,0.53-0.31,0.82-0.4c0.55-0.17,1.13-0.26,1.67-0.45	c0.19-0.07,0.32-0.31,0.48-0.48c-0.24-0.1-0.5-0.32-0.7-0.28c-1.12,0.25-2.23,0.57-3.41,0.88c0.42,0.8,0.6,1.52-0.31,2.04	c-0.09,0.05-0.14,0.42-0.07,0.49c0.8,0.79,1.63,1.57,2.47,2.31c0.1,0.09,0.39-0.03,0.59-0.05c-0.05-0.2-0.03-0.45-0.15-0.58	c-0.44-0.47-0.94-0.89-1.38-1.36c-0.18-0.19-0.27-0.45-0.51-0.87c0.42,0.07,0.57,0.08,0.71,0.12c2.48,0.62,4.47,2.1,6.47,3.58	c0.27,0.2,0.73,0.12,1.11,0.17c-0.16-0.33-0.23-0.75-0.48-0.96c-0.83-0.68-1.72-1.29-2.77-2.05c0.45-0.15,0.68-0.26,0.91-0.29	C44.43,34.41,45.3,34.36,46.16,34.2z"/>
    <path d="M6.1,15.33c1.11,0.58,2.29,1.02,3.39,1.63c1.2,0.66,2.31,1.46,3.29,2.74c-1.36,0.23-2.39-0.97-3.49-0.36	c-0.02,0.15-0.04,0.3-0.07,0.45c1.27,0.37,2.54,0.74,4.01,1.16c-0.11-1.32,0.64-1.66,1.65-1.69c-0.31-1.15-0.56-2.21-0.91-3.24	c-0.08-0.25-0.46-0.41-0.7-0.61c-0.04,0.31-0.15,0.63-0.09,0.92c0.15,0.75,0.38,1.48,0.58,2.22c-0.42,0-0.66-0.06-0.77-0.22	c-0.75-1-1.56-1.98-2.19-3.05c-0.65-1.11-1.1-2.33-1.68-3.48c-0.09-0.19-0.44-0.24-0.67-0.36c-0.09,0.24-0.26,0.48-0.23,0.7	c0.04,0.31,0.23,0.6,0.36,0.89c0.36,0.82,0.71,1.64,1.17,2.71c-0.5-0.15-0.71-0.2-0.89-0.28c-0.77-0.34-1.51-0.75-2.3-1.02	c-0.35-0.12-0.79,0.03-1.18,0.05C5.62,14.78,5.8,15.17,6.1,15.33z"/>
    <path d="M1.28,37.79c0.34-0.01,0.69,0.02,1.01-0.06c0.2-0.05,0.37-0.25,0.56-0.38c1.24-0.81,2.44-1.69,3.74-2.4	c0.86-0.47,1.86-0.71,2.79-1.05c0.06,0.1,0.12,0.21,0.18,0.31c-0.17,0.21-0.32,0.43-0.5,0.62c-0.41,0.41-0.86,0.79-1.24,1.23	c-0.15,0.18-0.15,0.49-0.22,0.75c0.25-0.04,0.58,0.01,0.74-0.13c0.76-0.65,1.49-1.34,2.2-2.05c0.11-0.11,0.13-0.53,0.08-0.56	c-1-0.5-0.66-1.33-0.48-2.11c-1.09-0.29-2.11-0.6-3.15-0.83c-0.16-0.03-0.33,0.03-0.51,0.1c-0.11,0.04-0.22,0.09-0.32,0.12	c0.09,0.09,0.18,0.2,0.26,0.3c0.09,0.1,0.18,0.19,0.29,0.23c0.51,0.19,1.06,0.26,1.58,0.42c0.29,0.09,0.55,0.26,0.83,0.4	c-1.63,0.76-3.25,0.94-4.89,0.83c-1.03-0.07-2.06-0.24-3.09-0.28c-0.32-0.01-0.66,0.24-0.99,0.38c0.31,0.21,0.6,0.51,0.94,0.59	c0.53,0.14,1.09,0.11,1.64,0.19c0.52,0.07,1.04,0.19,1.56,0.28c0.01,0.1,0.01,0.21,0.02,0.31c-0.88,0.64-1.79,1.24-2.64,1.93	C1.46,37.1,1.41,37.5,1.28,37.79z"/>
    <path d="M6.17,31.35L6.17,31.35c0.1-0.03,0.21-0.08,0.32-0.12C6.38,31.27,6.27,31.32,6.17,31.35z"/>
    <path d="M41.01,43.84c-2.16-0.96-4.34-1.88-6.04-3.6c-0.19-0.19-0.32-0.45-0.48-0.67c0.39-0.13,0.63-0.08,0.86-0.01	c0.62,0.17,1.24,0.38,1.87,0.51c0.17,0.04,0.41-0.1,0.55-0.23c0.05-0.05-0.08-0.43-0.18-0.46c-1.15-0.36-2.31-0.69-3.46-1.02	c0.03,0.13,0.06,0.26,0.09,0.38c-0.41,0.39-0.76,0.93-1.25,1.15c-0.58,0.25-0.63,0.54-0.47,1.04c0.23,0.71,0.41,1.43,0.68,2.12	c0.12,0.3,0.43,0.52,0.65,0.78c0.04-0.35,0.18-0.71,0.11-1.04c-0.15-0.72-0.4-1.41-0.69-2.38c0.41,0.21,0.72,0.28,0.87,0.47	c0.69,0.85,1.44,1.68,1.99,2.62c0.72,1.25,1.26,2.61,1.92,3.9c0.12,0.23,0.46,0.35,0.69,0.52c0.08-0.32,0.2-0.63,0.23-0.96	c0.01-0.13-0.15-0.28-0.22-0.42c-0.38-0.89-0.75-1.78-1.13-2.67c0.08-0.07,0.15-0.13,0.23-0.2c0.32,0.11,0.65,0.19,0.96,0.33	c0.71,0.31,1.4,0.68,2.12,0.93c0.26,0.09,0.61-0.08,0.92-0.12c-0.16-0.27-0.31-0.56-0.5-0.81C41.3,43.9,41.13,43.89,41.01,43.84z"/>
    <path d="M36.86,27.3c1.47,0.32,2.78,0.61,4.09,0.9c0.06-0.15,0.12-0.3,0.18-0.45c-0.24-0.16-0.46-0.37-0.72-0.45	c-0.59-0.18-1.2-0.27-1.79-0.44c-0.18-0.05-0.31-0.25-0.47-0.38c0.15-0.14,0.28-0.37,0.45-0.41c1.91-0.38,3.83-0.65,5.78-0.23	c0.66,0.14,1.35,0.18,2.03,0.19c0.19,0,0.38-0.26,0.57-0.4c-0.15-0.18-0.28-0.48-0.46-0.51c-0.86-0.16-1.73-0.25-2.59-0.36	c-0.33-0.04-0.66-0.08-1.3-0.16c0.43-0.4,0.63-0.62,0.86-0.79c0.75-0.56,1.53-1.09,2.26-1.68c0.14-0.11,0.24-0.52,0.15-0.63	c-0.12-0.15-0.45-0.22-0.66-0.18c-0.24,0.05-0.43,0.26-0.65,0.4c-1.53,0.96-3.04,1.96-4.6,2.85c-0.65,0.37-1.44,0.5-2.17,0.74	c-0.07-0.12-0.14-0.25-0.21-0.37c0.6-0.6,1.22-1.18,1.8-1.81c0.14-0.15,0.14-0.44,0.2-0.66c-0.26,0.02-0.61-0.06-0.76,0.08	c-0.82,0.77-1.58,1.6-2.42,2.46C37.19,25.54,37.68,26.21,36.86,27.3z"/>
    <path d="M2.47,25.9c2.04-0.48,4.05-0.25,6.06,0.16c0.2,0.04,0.36,0.28,0.54,0.43c-0.16,0.12-0.31,0.3-0.49,0.35	c-0.46,0.14-0.95,0.2-1.41,0.35c-0.37,0.12-0.71,0.32-1.07,0.48c0.06,0.17,0.11,0.33,0.17,0.5c1.29-0.28,2.59-0.56,4.01-0.86	c-0.6-1.11-0.37-1.81,0.37-2.2c-0.73-0.82-1.42-1.67-2.18-2.44c-0.19-0.19-0.59-0.17-0.89-0.25c0.12,0.29,0.18,0.66,0.39,0.87	c0.56,0.55,1.19,1.03,1.79,1.53C9.64,25,9.54,25.16,9.43,25.32c-0.76-0.25-1.59-0.38-2.27-0.78c-1.67-0.97-3.27-2.07-4.92-3.07	c-0.23-0.14-0.61-0.04-0.93-0.05c0.11,0.29,0.14,0.68,0.35,0.86c0.67,0.56,1.41,1.03,2.1,1.56c0.2,0.16,0.32,0.42,0.47,0.63	c-0.26,0.09-0.51,0.21-0.77,0.25c-0.9,0.13-1.8,0.19-2.69,0.35c-0.23,0.04-0.41,0.33-0.61,0.5c0.25,0.15,0.49,0.41,0.75,0.43	C1.44,26.06,1.97,26.02,2.47,25.9z"/>
    <path d="M15.68,8.68c1.31,1.8,2.68,3.57,3.29,5.76c0.1,0.36,0.13,0.74,0.18,1.11c-0.09,0.03-0.18,0.07-0.28,0.1	c-0.6-0.62-1.18-1.27-1.81-1.85c-0.11-0.11-0.34-0.09-0.55-0.09c-0.07,0-0.14,0-0.2-0.01c0.01,0.03,0.01,0.06,0.02,0.09	c0.01,0.06,0.02,0.12,0.02,0.19c0.02,0.16,0.04,0.31,0.13,0.4c0.8,0.83,1.64,1.62,2.51,2.48c0.38-0.72,0.93-1.03,1.76-0.8	c0.19,0.05,0.62-0.22,0.68-0.42c0.25-0.83,0.42-1.69,0.56-2.55c0.04-0.25-0.14-0.54-0.22-0.82c-0.2,0.25-0.48,0.47-0.58,0.76	c-0.23,0.68-0.36,1.4-0.61,2.4c-0.32-0.45-0.55-0.62-0.56-0.81c-0.11-1.8-0.22-3.6-0.26-5.4c-0.01-0.77,0.18-1.54,0.21-2.32	c0.01-0.22-0.26-0.45-0.39-0.68c-0.18,0.18-0.47,0.33-0.53,0.55c-0.15,0.59-0.23,1.21-0.3,1.82c-0.07,0.56-0.09,1.13-0.16,1.96	c-0.4-0.36-0.65-0.53-0.82-0.75c-0.55-0.72-1.04-1.48-1.62-2.17c-0.15-0.17-0.54-0.14-0.82-0.2c0,0.26-0.05,0.53,0.01,0.77	C15.39,8.38,15.57,8.52,15.68,8.68z"/>
    <path d="M16.36,13.98c-0.01-0.06-0.01-0.13-0.02-0.19C16.35,13.85,16.35,13.91,16.36,13.98z"/>
    <path d="M16.32,13.7c0.01,0.03,0.01,0.06,0.02,0.09C16.33,13.76,16.33,13.73,16.32,13.7L16.32,13.7z"/>
    <path d="M21.87,47.15c0.11-0.27,0.24-0.43,0.21-0.55c-0.2-1.08-0.42-2.15-0.67-3.21c-0.03-0.14-0.42-0.36-0.49-0.31	c-0.93,0.65-1.41-0.12-1.97-0.61c-0.85,0.82-1.7,1.61-2.5,2.44c-0.12,0.13-0.04,0.45-0.06,0.68c0.21-0.03,0.45,0,0.61-0.11	c0.26-0.18,0.47-0.44,0.7-0.67c0.39-0.39,0.79-0.77,1.18-1.16c0.11,0.07,0.23,0.14,0.34,0.21c-0.23,0.73-0.35,1.53-0.73,2.18	c-0.89,1.56-1.93,3.04-2.86,4.59c-0.2,0.32-0.39,1-0.26,1.11c0.58,0.48,0.82-0.19,1.09-0.53c0.48-0.6,0.9-1.26,1.37-1.87	c0.16-0.21,0.42-0.33,0.71-0.56c0.17,1.35,0.29,2.5,0.47,3.64c0.03,0.21,0.34,0.37,0.52,0.56c0.15-0.21,0.42-0.42,0.43-0.64	c0.02-0.54-0.03-1.1-0.13-1.64c-0.38-1.97-0.27-3.93,0.15-5.87c0.06-0.27,0.27-0.5,0.45-0.81C21.24,45.03,20.79,46.35,21.87,47.15z"/>
    <path d="M27.62,52.89c0.74,0.05,0.55-0.6,0.61-1.05c0.14-0.98,0.26-1.96,0.4-2.94c0.1-0.02,0.21-0.04,0.31-0.06	c0.67,0.9,1.32,1.81,2.03,2.67c0.16,0.19,0.53,0.21,0.81,0.31c0-0.31,0.11-0.7-0.03-0.92c-0.48-0.76-1.05-1.47-1.58-2.2	c-1.05-1.47-1.82-3.06-2.2-4.96c1.36,0.11,1.55,2.1,3.29,1.69c-0.99-1.03-1.82-1.92-2.67-2.78c-0.1-0.1-0.46-0.14-0.5-0.08	c-0.58,0.88-1.35,0.79-2.13,0.36c-0.33,1.19-0.64,2.23-0.89,3.29c-0.05,0.23,0.1,0.51,0.16,0.77c0.2-0.15,0.49-0.26,0.58-0.46	c0.2-0.47,0.29-0.99,0.45-1.48c0.11-0.33,0.25-0.64,0.38-0.96c0.1,0.01,0.2,0.02,0.3,0.03c0.14,0.55,0.39,1.09,0.39,1.64	c0.02,2-0.05,4-0.04,6C27.29,52.18,27.48,52.88,27.62,52.89z"/>
    <path d="M37.47,17.31c2.03-0.86,4.18-1.08,6.34-1.28c0.34-0.03,0.93-0.36,0.93-0.54c-0.01-0.67-0.58-0.51-1.02-0.46	c-1.02,0.1-2.03,0.18-3.35,0.3c0.29-0.47,0.39-0.67,0.52-0.82c0.64-0.73,1.31-1.43,1.93-2.18c0.12-0.15,0.06-0.45,0.08-0.68	c-0.26-0.01-0.55-0.08-0.78-0.01c-0.19,0.06-0.31,0.32-0.48,0.47c-1.57,1.43-3.14,2.86-4.69,4.31c-0.19,0.18-0.23,0.51-0.34,0.77	C36.9,17.23,37.24,17.41,37.47,17.31z"/>
    <path d="M40.47,7.85c0.08-0.02,0.16-0.03,0.25-0.03c0.04,0,0.09-0.01,0.13-0.01c0.09-0.01,0.18-0.02,0.25-0.03	c0.12-0.02,0.21-0.06,0.27-0.13c1.33-1.83,3.24-2.96,4.98-4.29c0.25-0.19,0.34-0.58,0.5-0.88c-0.37,0.02-0.81-0.07-1.09,0.09	C45.02,3,44.35,3.57,43.62,4.04c-0.18,0.12-0.45,0.08-0.68,0.12c0-0.21-0.05-0.43-0.01-0.63c0.23-0.97,0.49-1.94,0.76-2.99	c-0.13-0.19-0.24-0.49-0.42-0.54c-0.16-0.04-0.47,0.15-0.58,0.33c-0.16,0.26-0.24,0.59-0.3,0.91c-0.37,2-0.82,3.98-1.88,5.76	c-0.08,0.14-0.07,0.32-0.06,0.51C40.47,7.63,40.48,7.75,40.47,7.85z"/>
    <path d="M41.11,7.77c-0.08,0.02-0.16,0.03-0.25,0.03C40.95,7.8,41.03,7.79,41.11,7.77z"/>
    <path d="M40.47,7.85c0.08-0.02,0.16-0.03,0.25-0.03C40.64,7.83,40.55,7.84,40.47,7.85L40.47,7.85z"/>
    <path d="M30.91,19.17c0.13,0.06,0.51-0.13,0.58-0.3c0.88-2.21,2.43-3.95,3.88-5.77c0.12-0.15,0.1-0.41,0.09-0.66	c0-0.08,0-0.16,0-0.24c-0.08,0.02-0.16,0.04-0.24,0.06c-0.08,0.02-0.17,0.03-0.25,0.05c-0.16,0.04-0.31,0.09-0.41,0.19	c-0.6,0.63-1.11,1.35-1.67,2.01c-0.19,0.22-0.44,0.38-0.66,0.56c-0.09-0.04-0.18-0.07-0.28-0.11c0-0.99,0.01-1.98,0-2.96	c-0.01-0.47,0.1-1.11-0.62-1.03c-0.19,0.02-0.47,0.7-0.43,1.05c0.2,2.11,0.27,4.2-0.29,6.27c-0.03,0.09-0.1,0.21-0.06,0.28	C30.63,18.8,30.73,19.1,30.91,19.17z"/>
    <path d="M35.46,12.22c-0.08,0.02-0.16,0.04-0.24,0.06C35.3,12.26,35.39,12.24,35.46,12.22L35.46,12.22z"/>
    <path d="M34.97,12.32c0.08-0.02,0.17-0.03,0.25-0.05C35.14,12.29,35.05,12.3,34.97,12.32z"/>
    <path d="M21.82,8.57c0.26,1.05,0.46,2.08,1.96,1.56c0.12-0.04,0.3,0.09,0.65,0.2c0.12-0.12,0.4-0.28,0.49-0.51	c0.38-0.95,0.74-1.92,1.05-2.9c0.08-0.24-0.06-0.55-0.1-0.83c-0.3,0.17-0.73,0.26-0.87,0.52c-0.35,0.65-0.54,1.38-0.84,2.06	c-0.12,0.27-0.35,0.48-0.53,0.72c-0.22-0.25-0.51-0.46-0.64-0.75c-0.28-0.61-0.42-1.3-0.74-1.89c-0.16-0.29-0.57-0.44-0.87-0.66	c-0.04,0.35-0.17,0.72-0.1,1.04C21.39,7.62,21.7,8.07,21.82,8.57z"/>
    <path d="M13.21,50.61c0.11,0.14,0.28,0.35,0.44,0.56c0.2-0.17,0.52-0.32,0.58-0.53c0.27-1.1,0.49-2.2,0.68-3.32	c0.07-0.39-1.95-1.56-2.3-1.35c-0.08,0.05-0.14,0.14-0.21,0.2c-0.76,0.65-1.54,1.28-2.27,1.96c-0.18,0.17-0.21,0.51-0.3,0.77	c0.31,0.02,0.7,0.16,0.91,0.02c0.7-0.46,1.32-1.04,2-1.53c0.2-0.14,0.51-0.14,0.77-0.2c0.05,0.26,0.17,0.53,0.14,0.79	C13.53,48.81,13.37,49.64,13.21,50.61z"/>
    <path d="M13.25,13.19c0.42-0.21,0.84-0.45,1.22-0.74c0.19-0.15,0.45-0.43,0.42-0.61c-0.16-1.05-0.37-2.09-0.63-3.12	c-0.06-0.24-0.4-0.41-0.61-0.61c-0.13,0.26-0.39,0.52-0.37,0.77c0.05,0.74,0.23,1.46,0.31,2.2c0.04,0.32-0.05,0.66-0.07,0.99	c-0.33-0.12-0.7-0.18-0.97-0.38c-0.58-0.41-1.11-0.88-1.66-1.33c-0.45-0.36-0.86-0.43-1.24,0.26c1,0.88,2,1.77,3.03,2.63	C12.77,13.35,13.08,13.28,13.25,13.19z"/>
    <path d="M44.53,29.03c0.73-0.33,1.5-0.58,2.24-0.9c0.21-0.09,0.38-0.29,0.57-0.43c-0.01-0.11-0.01-0.22-0.02-0.34	c-0.31-0.05-0.65-0.21-0.92-0.13c-0.71,0.2-1.39,0.55-2.1,0.74c-0.85,0.23-1.74,0.35-1.14,1.6c0.06,0.12,0,0.33-0.08,0.46	c-0.34,0.6,0,0.79,0.51,0.96c0.92,0.3,1.82,0.67,2.75,0.93c0.26,0.08,0.6-0.11,0.9-0.17c-0.19-0.26-0.32-0.63-0.58-0.75	c-0.7-0.33-1.45-0.54-2.16-0.85c-0.23-0.1-0.38-0.37-0.57-0.57C44.12,29.4,44.29,29.14,44.53,29.03z"/>
    <path d="M2.75,20.31c0.42,0.16,0.89,0.16,1.33,0.25c1.12,0.22,2.36,0.77,2.79-0.98c0.01-0.05,0.08-0.1,0.14-0.13	c0.44-0.31,0.34-0.62,0.03-0.97c-0.67-0.75-1.29-1.54-1.99-2.25c-0.18-0.19-0.56-0.19-0.85-0.28c0.04,0.32-0.03,0.72,0.14,0.96	c0.45,0.66,1.02,1.25,1.51,1.89c0.13,0.18,0.26,0.59,0.19,0.65c-0.19,0.16-0.5,0.28-0.75,0.25c-0.8-0.09-1.6-0.25-2.58-0.41	c-0.14,0.09-0.38,0.24-0.62,0.4C2.31,19.89,2.49,20.21,2.75,20.31z"/>
    <path d="M33.77,47.19c0.21-0.05,0.51,0.02,0.69,0.16c0.59,0.44,1.12,0.98,1.74,1.39c0.29,0.19,0.71,0.18,1.08,0.26	c-0.14-0.35-0.2-0.75-0.43-1.02c-0.33-0.39-0.78-0.67-1.16-1.02c-0.75-0.68-1.45-1.59-2.48-0.36c-0.07,0.08-0.29,0.03-0.36,0.12	c-0.19,0.24-0.48,0.52-0.46,0.76c0.11,0.99,0.28,1.98,0.52,2.96c0.06,0.26,0.43,0.45,0.66,0.67c0.13-0.29,0.38-0.59,0.35-0.87	c-0.08-0.83-0.26-1.66-0.43-2.62C33.55,47.52,33.63,47.22,33.77,47.19z"/>
    <path d="M22.11,52.74c0.34-0.69,0.56-1.44,0.88-2.14c0.05-0.1,0.11-0.19,0.19-0.28c0.05-0.06,0.11-0.11,0.16-0.17	c0.08-0.08,0.17-0.16,0.25-0.25c0.07,0.08,0.16,0.16,0.24,0.24c0.13,0.13,0.26,0.27,0.34,0.43c0.3,0.68,0.49,1.4,0.82,2.06	c0.13,0.25,0.49,0.41,0.78,0.54c0.06,0.03,0.27-0.28,0.35-0.37c-0.31-0.93-0.56-1.76-0.88-2.57c-0.27-0.7-0.38-1.7-1.59-1.1	c-0.11,0.06-0.32-0.02-0.46-0.08c-0.64-0.3-0.91,0.11-1.09,0.59c-0.33,0.87-0.65,1.75-0.89,2.65c-0.07,0.28,0.13,0.62,0.2,0.94	C21.66,53.08,22,52.96,22.11,52.74z"/>
    <path d="M0.5,28.18c0.69,0.34,1.45,0.54,2.15,0.86c0.26,0.12,0.45,0.4,0.68,0.6c-0.21,0.17-0.39,0.41-0.63,0.51	c-0.74,0.32-1.52,0.54-2.24,0.9c-0.23,0.11-0.3,0.53-0.44,0.8c0.28,0.04,0.58,0.19,0.82,0.12c0.96-0.29,1.9-0.63,2.83-0.99	c0.22-0.09,0.51-0.36,0.52-0.56c0.03-0.52-0.08-1.04-0.13-1.56c0.08-0.04,0.16-0.08,0.24-0.12c-0.2-0.17-0.37-0.42-0.61-0.51	c-0.93-0.36-1.88-0.69-2.84-0.97C0.6,27.19,0.28,27.36,0,27.42C0.16,27.68,0.26,28.06,0.5,28.18z"/>
    <path d="M4.35,42.31c-0.17,0.24-0.11,0.64-0.16,0.97c0.32-0.11,0.71-0.15,0.95-0.36c0.41-0.36,0.71-0.84,1.08-1.24	c0.69-0.74,1.61-1.42,0.36-2.44c-0.09-0.07-0.05-0.29-0.14-0.35c-0.28-0.18-0.6-0.47-0.87-0.45c-0.9,0.09-1.8,0.25-2.67,0.48	C2.6,39,2.36,39.33,2.09,39.55c0.31,0.13,0.64,0.4,0.94,0.37c0.8-0.07,1.6-0.26,2.54-0.42c0.11,0.07,0.4,0.16,0.49,0.34	c0.07,0.12-0.08,0.42-0.21,0.58C5.37,41.05,4.8,41.64,4.35,42.31z"/>
    <path d="M42.89,42.39c-0.45-0.67-1.02-1.25-1.49-1.9c-0.15-0.2-0.16-0.51-0.24-0.77c0.26-0.06,0.53-0.19,0.78-0.16	c0.83,0.1,1.66,0.27,2.65,0.43c0.14-0.11,0.37-0.3,0.6-0.48c-0.22-0.19-0.41-0.5-0.66-0.56c-1-0.24-2.02-0.43-3.04-0.58	c-1.2-0.19-0.63,1.37-1.48,1.58c-0.06,0.01-0.04,0.39-0.03,0.6c0,0.05,0.08,0.1,0.12,0.15c0.67,0.78,1.33,1.59,2.04,2.34	c0.18,0.19,0.55,0.2,0.83,0.29C42.95,43,43.04,42.62,42.89,42.39z"/>
    <path d="M46.25,18.05c0.16,0.13,0.31,0.35,0.49,0.37c1.66,0.19,3.32,0.37,4.98,0.51c0.23,0.02,0.48-0.19,0.72-0.29	c-0.23-0.17-0.43-0.43-0.68-0.5c-0.7-0.2-1.42-0.32-2.13-0.47c-0.02-0.11-0.03-0.21-0.05-0.32c0.67-0.41,1.36-0.81,2.01-1.26	c0.16-0.11,0.2-0.41,0.29-0.63c-0.23-0.01-0.49-0.1-0.67-0.02c-1.54,0.72-3.07,1.46-4.59,2.21C46.47,17.74,46.37,17.92,46.25,18.05z"/>
    <path d="M52.6,6.76c1.62-0.26,3.23-0.55,4.84-0.85c0.27-0.05,0.52-0.22,0.77-0.34c-0.02-0.1-0.04-0.19-0.06-0.29	c-0.98,0-1.96,0-2.94,0c-0.05-0.11-0.1-0.22-0.15-0.33c0.5-0.53,1.03-1.03,1.49-1.59c0.17-0.21,0.19-0.54,0.28-0.82	c-0.27,0.08-0.59,0.1-0.79,0.26c-1.26,1.06-2.49,2.14-3.72,3.23c-0.14,0.13-0.2,0.34-0.3,0.52C52.22,6.63,52.42,6.79,52.6,6.76z"/>
    <path d="M72.74,39.48c-0.13,0.01-0.27,0.03-0.4,0.04c0,2.11,0,4.21,0,6.32c-0.11,0.03-0.23,0.07-0.34,0.1	c-0.19-0.22-0.4-0.43-0.57-0.67c-1.25-1.76-2.47-3.54-3.75-5.29c-0.18-0.25-0.58-0.34-0.87-0.5c-0.15,0.3-0.42,0.59-0.43,0.89	c-0.05,1.8-0.07,3.6-0.02,5.4c0.01,0.54,0.28,1.07,0.43,1.61c0.14-0.55,0.37-1.1,0.39-1.66c0.05-1.59,0.02-3.19,0.02-4.78	c0.11-0.02,0.22-0.04,0.33-0.06c0.18,0.27,0.36,0.53,0.55,0.8c1.19,1.72,2.36,3.45,3.58,5.14c0.2,0.28,0.64,0.38,0.97,0.56	c0.12-0.32,0.34-0.64,0.34-0.96c0.03-2.02,0.03-4.04,0.01-6.06C72.98,40.07,72.83,39.78,72.74,39.48z"/>
    <path d="M117.6,39.45c-0.13,0.02-0.26,0.04-0.39,0.06c-0.04,0.31-0.12,0.62-0.12,0.93c-0.02,1.43,0.03,2.87-0.05,4.3	c-0.08,1.41-0.97,2.2-2.26,2.15c-1.16-0.05-1.91-0.87-1.94-2.21c-0.03-1.43,0.01-2.87-0.04-4.3c-0.01-0.3-0.25-0.59-0.39-0.89	c-0.15,0.28-0.44,0.55-0.44,0.83c-0.04,1.43-0.09,2.87,0.03,4.3c0.06,0.69,0.36,1.43,0.76,2c0.7,0.99,1.77,1.27,2.94,0.95	c1.27-0.35,2.07-1.38,2.15-2.88c0.08-1.47,0.04-2.94,0.02-4.41C117.87,39.99,117.7,39.72,117.6,39.45z"/>
    <path d="M133.83,46.71c-0.26-0.01-0.72-0.18-0.73-0.3c-0.07-0.83-0.12-1.68,0.03-2.49c0.03-0.18,0.89-0.25,1.37-0.29	c0.75-0.07,1.5-0.06,2.26-0.09c0-0.15,0.01-0.29,0.01-0.44c-0.32-0.06-0.65-0.15-0.97-0.17c-0.62-0.03-1.25-0.02-1.87-0.01	c-1.33,0.03-0.87-0.96-0.96-1.65c-0.09-0.74,0.1-1.22,0.98-1.17c0.73,0.04,1.47,0.04,2.2-0.01c0.3-0.02,0.6-0.19,0.9-0.29	c-0.01-0.15-0.03-0.31-0.04-0.46c-1.28,0-2.57,0.01-3.85,0c-0.74,0-1.03,0.33-1.01,1.08c0.04,1.5,0.01,3.01,0.01,4.51	c0,2.49,0.01,2.49,2.53,2.49c0.84,0,1.69,0,2.53,0c0.01-0.18,0.02-0.37,0.04-0.55c-0.33-0.06-0.66-0.15-0.99-0.16	C135.44,46.71,134.63,46.75,133.83,46.71z"/>
    <path d="M81.18,43.24c-0.41-0.15-0.84-0.26-1.24-0.44c-0.99-0.46-1.32-1.17-0.98-1.99c0.31-0.73,1.43-1.1,2.29-0.75	c0.2,0.08,0.37,0.27,0.58,0.31c0.24,0.05,0.5-0.01,0.75-0.01c-0.13-0.23-0.2-0.56-0.4-0.66c-0.47-0.24-1-0.38-1.51-0.56	c-1.36,0.11-2.44,0.84-2.63,1.88c-0.22,1.18,0.42,2.08,1.86,2.59c0.45,0.16,0.91,0.29,1.34,0.5c1.17,0.56,1.28,1.67,0.22,2.41	c-0.86,0.6-1.7,0.48-2.54-0.15c-0.2-0.15-0.55-0.08-0.84-0.12c0.14,0.26,0.21,0.64,0.42,0.76c0.54,0.29,1.13,0.57,1.73,0.64	c1.19,0.14,2.38-0.77,2.56-1.8C83.03,44.56,82.51,43.72,81.18,43.24z"/>
    <path d="M101.91,39.51c-0.01,0.14-0.02,0.28-0.02,0.43c0.37,0.06,0.73,0.17,1.1,0.18c1.48,0.05,1.48,0.04,1.48,1.56	c0,1.61-0.03,3.23,0.01,4.84c0.01,0.29,0.27,0.58,0.41,0.87c0.14-0.29,0.4-0.57,0.41-0.87c0.04-1.58,0.02-3.16,0.02-4.73	c0-1.61,0-1.6,1.57-1.67c0.37-0.02,0.73-0.17,1.1-0.26c-0.02-0.11-0.04-0.23-0.06-0.34C105.93,39.51,103.92,39.51,101.91,39.51z"/>
    <path d="M86.49,39.48c-0.02,0.16-0.04,0.32-0.06,0.47c0.49,0.06,0.99,0.18,1.48,0.16c0.85-0.04,1.19,0.27,1.16,1.15	c-0.06,1.69-0.04,3.38-0.01,5.07c0,0.36,0.16,0.72,0.25,1.07c0.13-0.02,0.27-0.03,0.4-0.05c0.04-0.37,0.11-0.75,0.12-1.12	c0.01-1.65,0.06-3.31-0.02-4.96c-0.04-0.95,0.31-1.23,1.2-1.17c0.5,0.03,1.02-0.12,1.52-0.19c-0.02-0.14-0.03-0.29-0.05-0.43	C90.48,39.48,88.48,39.48,86.49,39.48z"/>
    <path d="M121.92,39.51c-0.01,0.15-0.02,0.3-0.04,0.45c0.59,0.06,1.18,0.15,1.77,0.16c0.68,0.01,0.97,0.22,0.95,0.97	c-0.06,1.72-0.03,3.45-0.02,5.18c0,0.37,0.09,0.74,0.13,1.1c0.12,0.01,0.24,0.03,0.37,0.04c0.09-0.33,0.26-0.66,0.26-1	c0.02-1.69,0.08-3.38-0.02-5.06c-0.07-1.04,0.34-1.28,1.26-1.24c0.46,0.02,0.93-0.13,1.4-0.2c-0.02-0.14-0.04-0.27-0.06-0.41	C125.92,39.51,123.92,39.51,121.92,39.51z"/>
    <path d="M60.65,39.49c-0.14,0.26-0.39,0.51-0.41,0.77c-0.05,1.02-0.02,2.05-0.02,3.08c0,0,0,0,0.01,0	c0,1.06-0.03,2.13,0.02,3.19c0.01,0.29,0.29,0.56,0.44,0.84c0.13-0.26,0.38-0.52,0.38-0.78c0.03-2.13,0.03-4.25-0.01-6.38	C61.07,39.97,60.8,39.73,60.65,39.49z"/>
    <path d="M97.24,47.31c0-2.59,0-5.17,0-7.93C96.59,40.15,96.51,46.4,97.24,47.31z"/>
</svg>